<svg xmlns="http://www.w3.org/2000/svg" width="185.588" height="211.593" viewBox="0 0 185.588 211.593"><defs><style>.a{fill:#f2f2f2;}.b{fill:#fff;}.c{fill:#ffb8b8;}.d{fill:#2f2e41;}.e{fill:#0078fa;}.f{fill:#3f3d56;}</style></defs><g transform="translate(-4856.952 -546.84)"><path class="a" d="M882.114,684.037l-1.851.453c.835.12,1.671.235,2.506.339h30.876q3.473-.442,6.908-1.092A107.653,107.653,0,0,0,959.3,668.386c7.247-4.713,14.155-10.507,17.906-18.289,5.1-10.567,3.315-23.946-3.959-33.148a33.187,33.187,0,0,0-9.606-8.191c-.551-.317-1.108-.617-1.676-.9a36.075,36.075,0,0,0-19.927-3.648,39.524,39.524,0,0,0-28.626,18.343c-6.864,10.987-8.18,24.432-9.327,37.336-2.081-6.7-9.89-10.785-16.743-9.305s-12.134,7.869-12.986,14.826c-.835,6.8,2.255,13.789,7.405,18.327C881.879,683.835,881.993,683.939,882.114,684.037Z" transform="translate(4062.423 73.604)"/><path class="b" d="M932,687.93h1.545a1.122,1.122,0,0,0,.344-.464c.088-.208.169-.42.263-.628a188.568,188.568,0,0,1,55.2-74.171.881.881,0,0,0,.366-.808,1.189,1.189,0,0,0-1.922-.748,190.828,190.828,0,0,0-56.018,75.726c-.005.016-.011.027-.016.044A.851.851,0,0,0,932,687.93Z" transform="translate(4036.345 70.503)"/><path class="c" d="M833.138,492.057a6.225,6.225,0,0,1,6.218-6.217c.06,0,.119,0,.179.007l19.227-15.326-13.779-13.779a6.078,6.078,0,1,1,8.6-8.6l22.147,22.147L845.57,492.225a6.217,6.217,0,1,1-12.432-.167Z" transform="translate(4081.073 145.162)"/><path class="c" d="M654.539,566.224l-6.5-2.427,6.269-26.236,9.6,3.583Z" transform="translate(4237.102 184.59)"/><path class="d" d="M8.13,0H21.814V8.428H0v-.3A8.13,8.13,0,0,1,8.13,0Z" transform="translate(4873.29 741.847) rotate(20.472)"/><path class="c" d="M758.552,567.977h-6.941l-3.3-26.772h10.244Z" transform="translate(4191.587 182.936)"/><path class="d" d="M737.974,586.6h13.684v8.428H729.844v-.3A8.13,8.13,0,0,1,737.974,586.6Z" transform="translate(4199.97 162.332)"/><path class="d" d="M836.487,621.293a2.454,2.454,0,0,1-.744-1.916c1.238-20.446-9.538-57.61-12.87-68.513a1.866,1.866,0,0,0-1.291-1.271,1.937,1.937,0,0,0-1.811.407c-18,15.679-23.372,59.915-24.266,68.623a2.454,2.454,0,0,1-2.749,2.183l-8.984-1.123a2.458,2.458,0,0,1-2.1-2.958l23.556-108.913.014-.066.043-.052c5.7-6.836,22.2-4.174,22.9-4.058l.073.012.057.047c21.194,17.575,20.12,99.043,19.689,115.2a2.458,2.458,0,0,1-2.224,2.377l-7.358.7q-.118.011-.235.011a2.451,2.451,0,0,1-1.7-.688Z" transform="translate(4104.457 119.441)"/><circle class="c" cx="13.413" cy="13.413" r="13.413" transform="translate(4915.077 552.406)"/><path class="e" d="M856.48,439.335s-12.455-14.72-22.646-2.831h0a40.472,40.472,0,0,0-9.725,27.541l.384,12.938,23.495-3.68Z" transform="translate(4085.179 151.744)"/><path class="d" d="M847.795,385.832l-5.763-6.789c-1.485-1.75-3.038-3.655-3.248-5.94a7.223,7.223,0,0,1,3.377-6.35,14.666,14.666,0,0,1,7.149-2.136c4.652-.361,9.547.408,13.371,3.081s6.326,7.5,5.393,12.071c-.734,3.6-3.439,7.048-2.388,10.568,1.151,3.852,5.869,5.033,9.721,6.182,6.466,1.928,12.64,5.723,16.029,11.558s3.374,13.88-1.143,18.892a16.993,16.993,0,0,1-11.7,5.134,34.246,34.246,0,0,1-12.841-2.185,30.131,30.131,0,0,1-10.578-5.641c-3-2.682-5.16-6.52-5.067-10.543.089-3.833,2.143-7.326,2.986-11.066a18.16,18.16,0,0,0-5.677-17.328" transform="translate(4078.52 182.307)"/><path class="e" d="M813.656,605.564H796.98a2.056,2.056,0,0,1-2.054-2.054V583.831a2.056,2.056,0,0,1,2.054-2.054h16.676a2.056,2.056,0,0,1,2.054,2.054V603.51A2.056,2.056,0,0,1,813.656,605.564Z" transform="translate(4098.417 83.698)"/><path class="c" d="M819.375,523.525a6.071,6.071,0,0,1,1.2-7.922l9.128-71.917a6.379,6.379,0,0,1,6.316-5.566h.085a6.367,6.367,0,0,1,6.182,7.5l-12.834,71.026,0,0a6.1,6.1,0,0,1-2.4,9.162,5.942,5.942,0,0,1-2.472.532A6.184,6.184,0,0,1,819.375,523.525Z" transform="translate(4087.755 148.905)"/><path class="f" d="M869.179,751.092H728.833a.546.546,0,1,1,0-1.092H869.179a.546.546,0,0,1,0,1.092Z" transform="translate(4128.665 7.34)"/></g></svg>